<svg xmlns="http://www.w3.org/2000/svg" width="20" height="17" viewBox="0 0 20 17">
  <path fill="#F5432B" fill-rule="evenodd" d="M11.2452918,1.29396503 C11.5836616,1.50352422 11.8725113,1.78403444 12.0918907,2.11612158 L18.4456779,11.7342124 C19.2828243,13.0014487 18.9341675,14.707388 17.6669312,15.5445344 C17.2172199,15.8416172 16.6901226,16 16.1511435,16 L3.84068089,16 C2.32189783,16 1.09068089,14.7687831 1.09068089,13.25 C1.09068089,12.7384231 1.23338025,12.2369875 1.50273672,11.8020645 L7.4594122,2.18397375 C8.25908487,0.892762837 9.95408091,0.494292364 11.2452918,1.29396503 Z M9.82138149,11.2964376 L9.62386438,11.2964376 C8.88166274,11.2964376 8.27998942,11.898111 8.27998942,12.6403126 C8.27998942,13.3825142 8.88166274,13.9841876 9.62386438,13.9841876 L9.62386438,13.9841876 L9.82138149,13.9841876 C10.5635831,13.9841876 11.1652565,13.3825142 11.1652565,12.6403126 C11.1652565,11.898111 10.5635831,11.2964376 9.82138149,11.2964376 L9.82138149,11.2964376 Z M9.72262294,4.57706284 C9.63842432,4.57706284 9.55431951,4.58268051 9.47086884,4.59387842 C8.48403704,4.72629742 7.7773894,5.59672885 7.83243528,6.57441234 L7.84646505,6.72179041 L8.08812783,8.52274431 C8.19798488,9.3414367 8.89659279,9.95256268 9.72262294,9.95256268 C10.5000631,9.95256268 11.1646309,9.41121925 11.3317138,8.66498262 L11.357118,8.52274431 L11.5987808,6.72179041 C11.6099787,6.63833974 11.6155964,6.55423493 11.6155964,6.47003631 C11.6155964,5.42457593 10.7680833,4.57706284 9.72262294,4.57706284 Z"/>
</svg>
