<svg xmlns="http://www.w3.org/2000/svg" width="28" height="28" viewBox="0 0 28 28">
  <path fill="#162438" fill-rule="evenodd" d="M4.42444444,12.5211111 C6.18444444,15.98 9.02,18.8033333 12.4788889,20.5755556 L15.1677778,17.8866667 C15.4977778,17.5566667 15.9866667,17.4466667 16.4144444,17.5933333 C17.7833333,18.0455556 19.2622222,18.29 20.7777778,18.29 C21.45,18.29 22,18.84 22,19.5122222 L22,23.7777778 C22,24.45 21.45,25 20.7777778,25 C9.30111111,25 0,15.6988889 0,4.22222222 C0,3.55 0.55,3 1.22222222,3 L5.5,3 C6.17222222,3 6.72222222,3.55 6.72222222,4.22222222 C6.72222222,5.75 6.96666667,7.21666667 7.41888889,8.58555556 C7.55333333,9.01333333 7.45555556,9.49 7.11333333,9.83222222 L4.42444444,12.5211111 L4.42444444,12.5211111 Z"/>
</svg>
