<svg xmlns="http://www.w3.org/2000/svg" width="17" height="12" viewBox="0 0 17 12">
  <path fill="#FFF" fill-rule="evenodd" d="M1323,88 C1323.55228,88 1324,88.4477153 1324,89 C1324,89.5522847 1323.55228,90 1323,90 L1308,90 C1307.44772,90 1307,89.5522847 1307,89 C1307,88.4477153 1307.44772,88 1308,88 L1323,88 Z M1323,83 C1323.55228,83 1324,83.4477153 1324,84 C1324,84.5522847 1323.55228,85 1323,85 L1308,85 C1307.44772,85 1307,84.5522847 1307,84 C1307,83.4477153 1307.44772,83 1308,83 L1323,83 Z M1323,78 C1323.55228,78 1324,78.4477153 1324,79 C1324,79.5522847 1323.55228,80 1323,80 L1308,80 C1307.44772,80 1307,79.5522847 1307,79 C1307,78.4477153 1307.44772,78 1308,78 L1323,78 Z" transform="translate(-1307 -78)"/>
</svg>
