<svg xmlns="http://www.w3.org/2000/svg" width="20" height="11" viewBox="0 0 20 11">
  <path fill-rule="evenodd" d="M973,1469.5 C973,1466.46 975.46,1464 978.5,1464 L989,1464 C991.21,1464 993,1465.79 993,1468 C993,1470.21 991.21,1472 989,1472 L980.5,1472 C979.12,1472 978,1470.88 978,1469.5 C978,1468.12 979.12,1467 980.5,1467 L988,1467 L988,1469 L980.41,1469 C979.86,1469 979.86,1470 980.41,1470 L989,1470 C990.1,1470 991,1469.1 991,1468 C991,1466.9 990.1,1466 989,1466 L978.5,1466 C976.57,1466 975,1467.57 975,1469.5 C975,1471.43 976.57,1473 978.5,1473 L988,1473 L988,1475 L978.5,1475 C975.46,1475 973,1472.54 973,1469.5 L973,1469.5 Z" transform="translate(-973 -1464)"/>
</svg>
