<svg xmlns="http://www.w3.org/2000/svg" width="28" height="28" viewBox="0 0 28 28">
  <path fill="#162438" fill-rule="evenodd" d="M8.70025989,25 C9.44570077,25 10.05,24.3898571 10.05,23.6595357 L10.05,18.2228173 C10.05,17.4824993 10.6485268,16.8823529 11.3987184,16.8823529 L14.1012816,16.8823529 C14.8461582,16.8823529 15.45,17.4924958 15.45,18.2228173 L15.45,23.6595357 C15.45,24.3998537 16.0490175,25 16.7997401,25 L20.8502599,25 C21.5957008,25 22.2,24.3870685 22.2,23.6510769 L22.2,15.0806622 C22.2,14.581291 22.603136,14.1764706 23.0988263,14.1764706 L24.4500255,14.1764706 C25.444124,14.1764706 25.6525027,13.6375515 24.9062133,12.9644277 L13.753665,2.90526644 C13.1993561,2.40530159 12.3008308,2.40513297 11.746335,2.90526644 L0.593786716,12.9644277 C-0.148366194,13.6338205 0.0501496732,14.1764706 1.04997449,14.1764706 L2.40117373,14.1764706 C2.89758177,14.1764706 3.3,14.5875491 3.3,15.0806622 L3.3,23.6510769 C3.3,24.3960665 3.89901747,25 4.64974011,25 L8.70025989,25 Z"/>
</svg>
