<svg xmlns="http://www.w3.org/2000/svg" width="28" height="28" viewBox="0 0 28 28">
  <path fill="#162438" fill-rule="evenodd" d="M21.6,4 C22.92,4 24,5.125 24,6.5 L24,6.5 L24,21.5 C24,22.875 22.92,24 21.6,24 L21.6,24 L2.4,24 C1.08,24 0,22.875 0,21.5 L0,21.5 L0.012,6.5 C0.012,5.125 1.08,4 2.4,4 L2.4,4 Z M3.07549967,7.91511341 C2.73510805,8.43730511 2.87307902,9.14283845 3.38366645,9.49096624 L9.90446593,13.9369659 C11.1734193,14.8021613 12.8265807,14.8021613 14.0955341,13.9369659 L20.6163336,9.49096624 C21.126921,9.14283845 21.2648919,8.43730511 20.9245003,7.91511341 C20.5841087,7.39292172 19.8942539,7.25181505 19.3836664,7.59994285 L12.862867,12.0459425 C12.3403568,12.4021994 11.6596432,12.4021994 11.137133,12.0459425 L4.61633355,7.59994285 C4.10574612,7.25181505 3.41589129,7.39292172 3.07549967,7.91511341 Z"/>
</svg>
