<svg xmlns="http://www.w3.org/2000/svg" width="29" height="22" viewBox="0 0 29 22">
  <path fill="#0E243F" d="M7.30251179,22 C4.27823923,22 0,19.3630137 0,12.8082192 C0,5.80136986 5.5322059,1.43150685 11.6545138,0 C12.9084804,0.150684932 13.2035314,1.80821918 12.3921412,2.33561644 C9.73668238,3.31506849 6.12230786,5.80136986 6.12230786,9.34246575 C6.12230786,12.5068493 8.40895297,13.5616438 10.1792589,14.0136986 C11.4332255,14.390411 12.3921412,15.5958904 12.3921412,17.3287671 C12.3921412,19.890411 10.1054961,22 7.30251179,22 Z M23.456553,22 C20.4322805,22 16.1540412,19.3630137 16.1540412,12.8082192 C16.1540412,5.80136986 21.6862471,1.43150685 27.808555,0 C29.0625217,0.150684932 29.3575726,1.80821918 28.5461824,2.33561644 C25.8907236,3.31506849 22.2763491,5.80136986 22.2763491,9.34246575 C22.2763491,12.5068493 24.5629942,13.5616438 26.3333001,14.0136986 C27.5872668,14.390411 28.5461824,15.5958904 28.5461824,17.3287671 C28.5461824,19.890411 26.2595373,22 23.456553,22 Z"/>
</svg>
