<svg xmlns="http://www.w3.org/2000/svg" width="14" height="13" viewBox="0 0 14 13">
  <path fill="#EF9073" fill-rule="evenodd" d="M7.53465887,38.2446443 L5.09119013,39.5292518 C4.60234555,39.7862527 3.99771839,39.5983061 3.74071759,39.1094615 C3.63837852,38.9148011 3.60306384,38.691833 3.64024068,38.4750754 L4.10690169,35.7542329 C4.16253963,35.4298389 4.05499114,35.0988387 3.81930505,34.8691015 L1.84249732,32.9421902 C1.44701374,32.556689 1.43892144,31.9235757 1.82442265,31.5280922 C1.97793125,31.3706085 2.17907366,31.2681213 2.39671069,31.2364968 L5.12859179,30.8395313 C5.45430195,30.7922028 5.73586754,30.5876334 5.88152955,30.29249 L7.10326392,27.8169858 C7.34768622,27.3217321 7.94731205,27.1183931 8.44256571,27.3628154 C8.63977832,27.4601456 8.79940584,27.6197731 8.89673608,27.8169858 L10.1184704,30.29249 C10.2641325,30.5876334 10.545698,30.7922028 10.8714082,30.8395313 L13.6032893,31.2364968 C14.1498342,31.3159144 14.5285156,31.8233573 14.449098,32.3699022 C14.4174735,32.5875392 14.3149863,32.7886816 14.1575027,32.9421902 L12.1806949,34.8691015 C11.9450089,35.0988387 11.8374604,35.4298389 11.8930983,35.7542329 L12.3597593,38.4750754 C12.4531203,39.0194118 12.0875325,39.5363677 11.5431961,39.6297287 C11.3264384,39.6669056 11.1034703,39.6315909 10.9088099,39.5292518 L8.46534113,38.2446443 C8.1740171,38.0914862 7.8259829,38.0914862 7.53465887,38.2446443 Z" transform="translate(-1 -27)"/>
</svg>
