<svg xmlns="http://www.w3.org/2000/svg" width="41" height="53" viewBox="0 0 41 53">
  <path fill="#FFF" fill-rule="evenodd" d="M35.875,17.6666667 L33.3125,17.6666667 L33.3125,12.6190476 C33.3125,5.65333333 27.5725,0 20.5,0 C13.4275,0 7.6875,5.65333333 7.6875,12.6190476 L7.6875,17.6666667 L5.125,17.6666667 C2.30625,17.6666667 0,19.9380952 0,22.7142857 L0,47.952381 C0,50.7285714 2.30625,53 5.125,53 L35.875,53 C38.69375,53 41,50.7285714 41,47.952381 L41,22.7142857 C41,19.9380952 38.69375,17.6666667 35.875,17.6666667 L35.875,17.6666667 Z M20.5,40.3809524 C17.68125,40.3809524 15.375,38.1095238 15.375,35.3333333 C15.375,32.5571429 17.68125,30.2857143 20.5,30.2857143 C23.31875,30.2857143 25.625,32.5571429 25.625,35.3333333 C25.625,38.1095238 23.31875,40.3809524 20.5,40.3809524 L20.5,40.3809524 Z M28.44375,17.6666667 L12.55625,17.6666667 L12.55625,12.6190476 C12.55625,8.30333333 16.118125,4.7952381 20.5,4.7952381 C24.881875,4.7952381 28.44375,8.30333333 28.44375,12.6190476 L28.44375,17.6666667 L28.44375,17.6666667 Z"/>
</svg>
