<svg xmlns="http://www.w3.org/2000/svg" width="97" height="24" viewBox="0 0 97 24">
  <path fill="#FFF" d="M110.099574,83.665685 C111.332203,85.5304494 112,87.717502 112,90 C112,96.3512746 106.851275,101.5 100.5,101.5 C94.1487254,101.5 89,96.3512746 89,90 C89,87.7671535 89.6389973,85.6251469 90.8219235,83.7860733 C91.2700799,83.0893328 92.1982022,82.8878156 92.8949427,83.335972 C93.5916832,83.7841284 93.7932005,84.7122507 93.3450441,85.4089912 C92.4711706,86.7675863 92,88.3470147 92,90 C92,94.6944204 95.8055796,98.5 100.5,98.5 C105.19442,98.5 109,94.6944204 109,90 C109,88.3103271 108.507596,86.6976928 107.596909,85.3199729 C107.14009,84.6288811 107.330006,83.6983155 108.021097,83.2414965 C108.712189,82.7846775 109.642755,82.9745932 110.099574,83.665685 Z M124.967,83.93 C126.009672,83.93 126.90783,84.1084982 127.6615,84.4655 C128.41517,84.8225018 128.984665,85.2644974 129.37,85.7915 C129.755335,86.3185026 129.959333,86.8369974 129.982,87.347 C129.982,87.4490005 129.948,87.5339997 129.88,87.602 C129.812,87.6700003 129.721334,87.704 129.608,87.704 L127.823,87.704 C127.709666,87.704 127.624667,87.6813336 127.568,87.636 C127.511333,87.5906664 127.460334,87.5170005 127.415,87.415 C127.256333,86.9956646 126.978669,86.6386681 126.582,86.344 C126.185331,86.0493319 125.647003,85.902 124.967,85.902 C124.173663,85.902 123.553169,86.1144979 123.1055,86.5395 C122.657831,86.9645021 122.422667,87.6246622 122.4,88.52 C122.390083,88.8075848 122.384505,89.2253207 122.383266,89.7732179 L122.383,90.016 C122.383,90.6733366 122.388667,91.1719983 122.4,91.512 C122.422667,92.43 122.660664,93.1071645 123.114,93.5435 C123.567336,93.9798355 124.190663,94.198 124.984,94.198 C125.788671,94.198 126.434664,93.9826688 126.922,93.552 C127.409336,93.1213312 127.653,92.4753376 127.653,91.614 L127.653,91.087 L125.579,91.087 C125.465666,91.087 125.369334,91.0473337 125.29,90.968 C125.210666,90.8886663 125.171,90.7923339 125.171,90.679 L125.171,89.744 C125.171,89.6306661 125.210666,89.5343337 125.29,89.455 C125.369334,89.3756663 125.465666,89.336 125.579,89.336 L129.659,89.336 C129.783667,89.336 129.885666,89.3756663 129.965,89.455 C130.044334,89.5343337 130.084,89.6306661 130.084,89.744 L130.084,91.546 C130.084,92.4866714 129.874335,93.3054965 129.455,94.0025 C129.035665,94.6995035 128.440671,95.2349981 127.67,95.609 C126.899329,95.9830019 125.998338,96.17 124.967,96.17 C123.402992,96.17 122.187504,95.7676707 121.3205,94.963 C120.453496,94.1583293 119.991667,93.0363405 119.935,91.597 C119.926185,91.3413691 119.920798,90.9657629 119.918839,90.4701741 L119.918839,89.5618259 C119.920798,89.0662371 119.926185,88.6906309 119.935,88.435 C119.980334,87.0296596 120.444996,85.927504 121.329,85.1285 C122.213004,84.329496 123.425659,83.93 124.967,83.93 Z M146.71,83.93 C148.206007,83.93 149.398829,84.3323293 150.2885,85.137 C151.178171,85.9416707 151.645666,87.0976591 151.691,88.605 C151.713667,89.2623366 151.725,89.7496651 151.725,90.067 C151.725,90.3730015 151.713667,90.8546634 151.691,91.512 C151.645666,93.053341 151.189504,94.2149961 150.3225,94.997 C149.455496,95.7790039 148.251341,96.17 146.71,96.17 C145.157326,96.17 143.950338,95.7790039 143.089,94.997 C142.227662,94.2149961 141.774334,93.053341 141.729,91.512 C141.719083,91.2244152 141.713505,90.8196948 141.712266,90.297829 L141.712,90.067 C141.712,89.4209968 141.717667,88.9336683 141.729,88.605 C141.774334,87.0976591 142.238996,85.9416707 143.123,85.137 C144.007004,84.3323293 145.202659,83.93 146.71,83.93 Z M134.249,84.1 C134.373667,84.1 134.472833,84.136833 134.5465,84.2105 C134.620167,84.284167 134.657,84.3833327 134.657,84.508 L134.657,93.96 L140.046,93.96 C140.170667,93.96 140.272666,93.9996663 140.352,94.079 C140.431334,94.1583337 140.471,94.2546661 140.471,94.368 L140.471,95.592 C140.471,95.7053339 140.431334,95.8016663 140.352,95.881 C140.272666,95.9603337 140.170667,96 140.046,96 L132.651,96 C132.537666,96 132.441334,95.9603337 132.362,95.881 C132.282666,95.8016663 132.243,95.7053339 132.243,95.592 L132.243,84.508 C132.243,84.3833327 132.282666,84.284167 132.362,84.2105 C132.441334,84.136833 132.537666,84.1 132.651,84.1 L134.249,84.1 Z M159.273,84.1 C160.599007,84.1 161.590663,84.3918304 162.248,84.9755 C162.905337,85.5591696 163.234,86.3553283 163.234,87.364 C163.234,87.9533363 163.089501,88.4548313 162.8005,88.8685 C162.511499,89.2821687 162.174335,89.5796658 161.789,89.761 C162.265002,89.9763344 162.667332,90.3276642 162.996,90.815 C163.324668,91.3023358 163.489,91.8576635 163.489,92.481 C163.489,93.5350053 163.132004,94.3849968 162.418,95.031 C161.703996,95.6770032 160.706673,96 159.426,96 L154.343,96 C154.229666,96 154.133334,95.9603337 154.054,95.881 C153.974666,95.8016663 153.935,95.7053339 153.935,95.592 L153.935,84.525 C153.935,84.4003327 153.971833,84.2983337 154.0455,84.219 C154.119167,84.1396663 154.218333,84.1 154.343,84.1 L159.273,84.1 Z M171.122,84.1 C171.416668,84.1 171.620666,84.2416652 171.734,84.525 L175.814,95.49 L175.848,95.643 C175.848,95.7450005 175.811167,95.8299997 175.7375,95.898 C175.663833,95.9660003 175.581667,96 175.491,96 L173.978,96 C173.739999,96 173.575667,95.8923344 173.485,95.677 L172.703,93.62 L167.671,93.62 L166.889,95.677 C166.798333,95.8923344 166.634001,96 166.396,96 L164.883,96 C164.780999,96 164.696,95.9660003 164.628,95.898 C164.56,95.8299997 164.526,95.7450005 164.526,95.643 L164.56,95.49 L168.64,84.525 C168.753334,84.2416652 168.957332,84.1 169.252,84.1 L171.122,84.1 Z M179.418,84.1 C179.542667,84.1 179.641833,84.136833 179.7155,84.2105 C179.789167,84.284167 179.826,84.3833327 179.826,84.508 L179.826,93.96 L185.215,93.96 C185.339667,93.96 185.441666,93.9996663 185.521,94.079 C185.600334,94.1583337 185.64,94.2546661 185.64,94.368 L185.64,95.592 C185.64,95.7053339 185.600334,95.8016663 185.521,95.881 C185.441666,95.9603337 185.339667,96 185.215,96 L177.82,96 C177.706666,96 177.610334,95.9603337 177.531,95.881 C177.451666,95.8016663 177.412,95.7053339 177.412,95.592 L177.412,84.508 C177.412,84.3833327 177.451666,84.284167 177.531,84.2105 C177.610334,84.136833 177.706666,84.1 177.82,84.1 L179.418,84.1 Z M146.71,85.902 C145.961996,85.902 145.361336,86.1314977 144.908,86.5905 C144.454664,87.0495023 144.216667,87.743662 144.194,88.673 C144.184286,88.9547157 144.178735,89.3321819 144.177347,89.8054073 L144.177,90.05 C144.177,90.6280029 144.182667,91.0869983 144.194,91.427 C144.216667,92.356338 144.451831,93.0504977 144.8995,93.5095 C145.347169,93.9685023 145.950663,94.198 146.71,94.198 C147.469337,94.198 148.069998,93.9713356 148.512,93.518 C148.954002,93.0646644 149.192,92.3676714 149.226,91.427 C149.248667,90.7469966 149.26,90.2880012 149.26,90.05 C149.26,89.789332 149.248667,89.3303366 149.226,88.673 C149.192,87.743662 148.948336,87.0495023 148.495,86.5905 C148.041664,86.1314977 147.44667,85.902 146.71,85.902 Z M159.137,90.747 L156.332,90.747 L156.332,94.181 L159.137,94.181 C159.726336,94.181 160.185332,94.0195016 160.514,93.6965 C160.842668,93.3734984 161.007,92.9626692 161.007,92.464 C161.007,91.9653308 160.839835,91.5545016 160.5055,91.2315 C160.171165,90.9084984 159.715003,90.747 159.137,90.747 Z M100.5,78 C103.261424,78 105.5,80.2385763 105.5,83 C105.5,84.8409492 103.833333,87.8482836 100.5,92.0220032 C97.1666667,87.8482836 95.5,84.8409492 95.5,83 C95.5,80.2385763 97.7385763,78 100.5,78 Z M170.187,86.412 L168.266,91.648 L172.108,91.648 L170.187,86.412 Z M158.967,85.919 L156.332,85.919 L156.332,88.979 L158.967,88.979 C159.545003,88.979 159.989832,88.8373347 160.3015,88.554 C160.613168,88.2706652 160.769,87.8910024 160.769,87.415 C160.769,86.9389976 160.616002,86.570668 160.31,86.31 C160.003998,86.049332 159.556336,85.919 158.967,85.919 Z" transform="translate(-89 -78)"/>
</svg>
